<?xml version="1.0" encoding="UTF-8" standalone="no"?>
<!DOCTYPE svg PUBLIC "-//W3C//DTD SVG 1.1//EN"
"http://www.w3.org/Graphics/SVG/1.1/DTD/svg11.dtd">
<svg viewBox="0 0 935 1210" version="1.1" xmlns="http://www.w3.org/2000/svg" xmlns:xlink="http://www.w3.org/1999/xlink">
<defs>
<clipPath id="c0_1"><path d="M0,1210L0,0L935,0l0,1210Z" /></clipPath>
<style type="text/css"><![CDATA[
.g1_1{
fill: none;
stroke: #0067AB;
stroke-width: 1.1458334;
stroke-linecap: butt;
stroke-linejoin: round;
}
.g2_1{
fill: none;
stroke: #4A7EBB;
stroke-width: 1.1458334;
stroke-linecap: butt;
stroke-linejoin: round;
}
.g3_1{
fill: #FFFFFF;
}
.g4_1{
}
.g5_1{
fill: none;
stroke: #000000;
stroke-width: 1.0999999;
stroke-linecap: butt;
stroke-linejoin: round;
}
]]></style>
</defs>
<image preserveAspectRatio="none" x="619" y="67" width="382" height="140" xlink:href="img/1.png" />
<g clip-path="url(#c0_1)">
<path d="M-1.1,144.6l938.3,0" class="g1_1" />
<path d="M12.5,1115.9l924.7,0" class="g2_1" />
</g>
<path fill-rule="evenodd" d="M12.5,1151.6l908.7,0l0,-28.6l-908.7,0l0,28.6Z" class="g3_1" />
<image preserveAspectRatio="none" x="13" y="1129" width="908" height="17" xlink:href="img/2.png" />
<path fill-rule="evenodd" d="M120.5,499.8l245.1,0l0,-0.7l-245.1,0l0,0.7Z" class="g4_1" />
<path fill-rule="evenodd" d="M562.2,539.6l70.2,0l0,-0.7l-70.2,0l0,0.7Z" class="g4_1" />
<path fill-rule="evenodd" d="M220,591.5l244.8,0l0,-0.7l-244.8,0l0,0.7Z" class="g4_1" />
<path fill-rule="evenodd" d="M605.1,591.5l209.8,0l0,-0.7l-209.8,0l0,0.7Z" class="g4_1" />
<path fill-rule="evenodd" d="M219.8,625.8l245,0l0,-0.7l-245,0l0,0.7Z" class="g4_1" />
<path fill-rule="evenodd" d="M605.1,625.8l209.8,0l0,-0.7l-209.8,0l0,0.7Z" class="g4_1" />
<path fill-rule="evenodd" d="M233.8,716.2l174.9,0l0,-0.7l-174.9,0l0,0.7Z" class="g4_1" />
<path fill-rule="evenodd" d="M233.8,750.5l174.9,0l0,-0.7l-174.9,0l0,0.7Z" class="g4_1" />
<path fill-rule="evenodd" d="M233.8,784.8l174.9,0l0,-0.8l-174.9,0l0,0.8Z" class="g4_1" />
<path fill-rule="evenodd" d="M233.8,818.9l174.9,0l0,-0.8l-174.9,0l0,0.8Z" class="g4_1" />
<path fill-rule="evenodd" d="M233.8,853.2l174.9,0l0,-0.8l-174.9,0l0,0.8Z" class="g4_1" />
<path fill-rule="evenodd" d="M591.4,753.2l218.5,0l0,-0.7l-218.5,0l0,0.7Z" class="g4_1" />
<path fill-rule="evenodd" d="M591.4,787.5l218.5,0l0,-0.7l-218.5,0l0,0.7Z" class="g4_1" />
<path fill-rule="evenodd" d="M592.5,821.8l105.2,0l0,-0.7l-105.2,0l0,0.7Z" class="g4_1" />
<path fill-rule="evenodd" d="M726,855.9l52.8,0l0,-0.7l-52.8,0l0,0.7Z" class="g4_1" />
<path fill-rule="evenodd" d="M101.4,663.6l0.8,0l0,-0.7l-0.8,0l0,0.7Z" class="g4_1" />
<path fill-rule="evenodd" d="M101.4,663.6l0.8,0l0,-0.7l-0.8,0l0,0.7Z" class="g4_1" />
<path fill-rule="evenodd" d="M102.2,663.6l330.7,0l0,-0.7l-330.7,0l0,0.7Z" class="g4_1" />
<path fill-rule="evenodd" d="M432.9,663.6l0.8,0l0,-0.7l-0.8,0l0,0.7Z" class="g4_1" />
<path fill-rule="evenodd" d="M432.9,663.6l0.8,0l0,-0.7l-0.8,0l0,0.7Z" class="g4_1" />
<path fill-rule="evenodd" d="M453.5,663.6l0.7,0l0,-0.7l-0.7,0l0,0.7Z" class="g4_1" />
<path fill-rule="evenodd" d="M453.5,663.6l0.7,0l0,-0.7l-0.7,0l0,0.7Z" class="g4_1" />
<path fill-rule="evenodd" d="M454.2,663.6l378.8,0l0,-0.7l-378.8,0l0,0.7Z" class="g4_1" />
<path fill-rule="evenodd" d="M833,663.6l0.8,0l0,-0.7l-0.8,0l0,0.7Z" class="g4_1" />
<path fill-rule="evenodd" d="M833,663.6l0.8,0l0,-0.7l-0.8,0l0,0.7Z" class="g4_1" />
<path fill-rule="evenodd" d="M101.4,939.2l0.8,0l0,-275.6l-0.8,0l0,275.6Z" class="g4_1" />
<path fill-rule="evenodd" d="M101.4,939.9l0.8,0l0,-0.7l-0.8,0l0,0.7Z" class="g4_1" />
<path fill-rule="evenodd" d="M101.4,939.9l0.8,0l0,-0.7l-0.8,0l0,0.7Z" class="g4_1" />
<path fill-rule="evenodd" d="M102.2,939.9l330.7,0l0,-0.7l-330.7,0l0,0.7Z" class="g4_1" />
<path fill-rule="evenodd" d="M432.9,939.2l0.8,0l0,-275.6l-0.8,0l0,275.6Z" class="g4_1" />
<path fill-rule="evenodd" d="M432.9,939.9l0.8,0l0,-0.7l-0.8,0l0,0.7Z" class="g4_1" />
<path fill-rule="evenodd" d="M432.9,939.9l0.8,0l0,-0.7l-0.8,0l0,0.7Z" class="g4_1" />
<path fill-rule="evenodd" d="M453.5,939.2l0.7,0l0,-275.6l-0.7,0l0,275.6Z" class="g4_1" />
<path fill-rule="evenodd" d="M453.5,939.9l0.7,0l0,-0.7l-0.7,0l0,0.7Z" class="g4_1" />
<path fill-rule="evenodd" d="M453.5,939.9l0.7,0l0,-0.7l-0.7,0l0,0.7Z" class="g4_1" />
<path fill-rule="evenodd" d="M454.2,939.9l378.8,0l0,-0.7l-378.8,0l0,0.7Z" class="g4_1" />
<path fill-rule="evenodd" d="M833,939.2l0.8,0l0,-275.6l-0.8,0l0,275.6Z" class="g4_1" />
<path fill-rule="evenodd" d="M833,939.9l0.8,0l0,-0.7l-0.8,0l0,0.7Z" class="g4_1" />
<path fill-rule="evenodd" d="M833,939.9l0.8,0l0,-0.7l-0.8,0l0,0.7Z" class="g4_1" />
<path fill-rule="evenodd" d="M206.8,975.9l343.3,0l0,-1l-343.3,0l0,1Z" class="g4_1" />
<path fill-rule="evenodd" d="M651.9,975.9l173.2,0l0,-1l-173.2,0l0,1Z" class="g4_1" />
<image preserveAspectRatio="none" x="142" y="872" width="212" height="48" xlink:href="img/3.png" />
</svg>